<svg id="Capa_1" enable-background="new 0 0 512 512" height="512" viewBox="0 0 512 512" width="512" xmlns="http://www.w3.org/2000/svg"><g><g><path d="m256 7.461c-109.814 0-198.836 89.022-198.836 198.836 0 .204 0 .409.001.613.019 6.263.69 13.959 1.896 22.441 3.237 22.768 9.528 44.886 18.561 65.832 10.989 25.483 26.253 48.9 44.636 69.689l116.707 131.989c9.051 10.236 25.022 10.236 34.073 0l116.785-132.077c17.408-19.687 32.033-41.729 42.832-65.687 9.96-22.098 16.847-45.555 20.286-69.746 1.206-8.482 1.877-16.178 1.896-22.441.001-.204.001-.409.001-.613-.002-109.815-89.024-198.836-198.838-198.836z" fill="#fd9468"/></g><g><path d="m454.839 206.3v.607c-.02 6.267-.696 13.967-1.9 22.443-3.442 24.193-10.326 47.651-20.284 69.745-10.804 23.964-25.427 45.999-42.836 65.686l-116.778 132.078c-9.053 10.236-25.029 10.236-34.082 0l-1.761-1.99c6.765.477 13.708-2.069 18.623-7.62l116.789-132.068c17.409-19.687 32.032-41.732 42.826-65.686 9.968-22.104 16.852-45.561 20.294-69.755 1.204-8.476 1.87-16.175 1.89-22.433v-.617c0-71.167-37.384-133.601-93.59-168.727 65.656 32.47 110.809 100.126 110.809 178.337z" fill="#fe7d43"/></g><g><circle cx="256" cy="206.475" fill="#f9f3f1" r="148.016"/></g><g><path d="m404.015 206.479c0 81.742-66.273 148.015-148.015 148.015-25.228 0-48.984-6.317-69.775-17.449 15.887 5.83 33.057 9.013 50.973 9.013 81.742 0 148.015-66.263 148.015-148.016 0-56.514-31.674-105.627-78.241-130.567 56.635 20.773 97.043 75.168 97.043 139.004z" fill="#efe2dd"/></g><g><path d="m229.609 132.267c-11.356-14.881-26.025-25.982-44.039-12.437-10.061 7.565-16.94 18.932-20.18 31.097-6.887 25.861-.622 52.495 13.056 75.008 16.852 27.738 44.102 52.084 73.69 65.408 32.586 14.674 63.267 8.831 87.9-17.063 10.409-10.943 14.436-28.858.096-38.68-11.81-8.089-29.798-20.633-43.726-9.929-9.587 7.368-11.887 18.674-25.143 20.617-22.668 3.322-49.605-30.231-54.098-49.755-1.393-6.055-.135-11.515 3.158-16.683 3.451-5.416 7.97-7.051 12.255-10.955 10.187-9.281 6.244-24.555-2.969-36.628z" fill="#b0e7c9"/></g><g><path d="m340.04 274.284c-24.641 25.895-55.32 31.734-87.9 17.061-29.595-13.33-56.843-37.673-73.694-65.408-13.678-22.512-19.946-49.153-13.052-75.008 1.184-4.457 2.855-8.814 5.004-12.902-3.392 22.89 2.905 45.93 14.962 65.776 16.852 27.735 44.099 52.088 73.684 65.408 32.589 14.673 63.269 8.834 87.9-17.061.786-.826 1.542-1.691 2.248-2.596 1.273 8.535-2.716 17.966-9.152 24.73z" fill="#91deb6"/></g><g><path d="m256 0c-43.703 0-85.462 13.494-120.763 39.023-3.339 2.415-4.089 7.079-1.673 10.417 2.414 3.339 7.079 4.089 10.418 1.673 32.739-23.676 71.475-36.191 112.018-36.191 105.524 0 191.375 85.85 191.375 191.375l-.001.591c-.018 5.75-.648 13.155-1.822 21.414-3.31 23.282-9.939 46.069-19.702 67.73-10.213 22.66-24.216 44.129-41.619 63.811l-116.784 132.076c-2.941 3.327-7.007 5.159-11.447 5.159s-8.506-1.832-11.447-5.159l-116.707-131.988c-18.365-20.771-32.958-43.549-43.374-67.702-8.845-20.512-14.91-42.021-18.025-63.928-1.174-8.26-1.804-15.665-1.821-21.427l-.001-.578c0-50.218 19.307-97.668 54.363-133.612 2.877-2.95 2.818-7.674-.132-10.551s-7.674-2.819-10.551.132c-37.791 38.746-58.602 89.897-58.602 144.031l.001.635c.019 6.517.682 14.413 1.97 23.47 3.302 23.219 9.726 46.009 19.096 67.736 11.042 25.606 26.484 49.722 45.898 71.677l116.707 131.989c5.729 6.481 13.975 10.197 22.625 10.197s16.896-3.716 22.626-10.196l116.784-132.077c18.396-20.806 33.215-43.538 44.044-67.564 10.341-22.944 17.363-47.087 20.871-71.762 1.288-9.055 1.95-16.951 1.97-23.474l.001-.631c.001-113.752-92.544-206.296-206.296-206.296z"/><path d="m256 361.952c85.73 0 155.476-69.747 155.476-155.477s-69.746-155.476-155.476-155.476-155.476 69.746-155.476 155.476c-.001 85.73 69.746 155.477 155.476 155.477zm0-296.032c77.502 0 140.555 63.052 140.555 140.554s-63.052 140.555-140.555 140.555-140.555-63.053-140.555-140.555c0-77.501 63.053-140.554 140.555-140.554z"/><path d="m172.069 229.809c17.628 29.016 46.414 54.563 77.002 68.337 7.772 3.5 15.582 5.957 23.213 7.302.438.077.874.115 1.304.115 3.553 0 6.701-2.548 7.339-6.167.715-4.058-1.995-7.928-6.053-8.643-6.412-1.13-13.032-3.22-19.675-6.212-27.945-12.584-54.254-35.941-70.377-62.479-13.743-22.622-18.084-47.203-12.222-69.214 2.991-11.232 9.189-20.84 17.454-27.053 8.326-6.261 18.162-9.261 33.624 11 6.254 8.195 11.021 20.076 3.873 26.588-1.165 1.062-2.456 1.982-3.823 2.956-3.128 2.229-6.673 4.755-9.699 9.504-4.526 7.102-5.917 14.626-4.137 22.366 2.6 11.296 11.296 25.809 22.156 36.973 13.393 13.768 27.705 20.335 40.295 18.49 11.395-1.67 17.003-8.763 21.51-14.462 2.244-2.839 4.364-5.52 7.099-7.621 8.759-6.732 21.355.845 34.579 9.904l.385.264c3.606 2.47 5.56 5.573 5.972 9.487.6 5.701-2.181 12.558-7.257 17.895-8.948 9.406-18.781 15.969-29.224 19.507-3.903 1.322-5.995 5.557-4.673 9.46s5.558 5.993 9.46 4.673c12.757-4.321 24.616-12.179 35.248-23.355 8.128-8.545 12.347-19.664 11.286-29.743-.873-8.289-5.153-15.286-12.38-20.235l-.384-.263c-12.729-8.72-34.031-23.314-52.105-9.426-4.2 3.228-7.128 6.931-9.711 10.198-4.23 5.35-6.684 8.178-11.968 8.952-17.077 2.51-41.694-26.447-45.745-44.045-.886-3.852-.214-7.243 2.179-11 2.718-4.263 7.347-6.132 10.988-9.449 12.025-10.956 11.215-29.275-2.061-46.671-7.536-9.875-14.953-16.18-22.678-19.277-7.317-2.934-18.769-4.377-31.777 5.403-10.923 8.213-19.058 20.693-22.906 35.14-6.917 25.975-1.985 54.672 13.889 80.801z"/></g></g></svg>